<?xml version="1.0" encoding="utf-8"?>
<!-- Generator: Adobe Illustrator 19.1.0, SVG Export Plug-In . SVG Version: 6.00 Build 0)  -->
<svg version="1.1" id="Layer_1" xmlns="http://www.w3.org/2000/svg" xmlns:xlink="http://www.w3.org/1999/xlink" x="0px" y="0px"
	 viewBox="0 0 585.2 487.3" style="enable-background:new 0 0 585.2 487.3;" xml:space="preserve">
<style type="text/css">
	.st0{fill:url(#SVGID_1_);}
</style>
<g>
	<linearGradient id="SVGID_1_" gradientUnits="userSpaceOnUse" x1="531.3528" y1="64.9637" x2="571.6625" y2="64.9637">
		<stop  offset="0.546" style="stop-color:#ED1C24"/>
		<stop  offset="1" style="stop-color:#9C0A0E"/>
	</linearGradient>
	<polygon class="st0" points="531.4,13.9 571.7,129.9 571.7,0 	"/>
	<g>
		<g>
			<path d="M58.5,266.5c12.3-12.1,15.6-26.7,9.9-43.4c-9.7-28-35.3-37.9-67.9-26.6v0.1v32.7l4.1-1.4c12.8-4.4,23.4,0.6,27.7,12.9
				c4.4,12.8-0.1,23.2-11.9,27.3L0.5,275v116.5l68.6-23.8c35.7-12.3,51-39.2,40.1-70.6C101.4,274.1,84.1,263.9,58.5,266.5z
				 M48.9,342.5l-22.7,7.8l-16.1-46.6l22.4-7.8c5.3-1.8,9.7-3.1,12.8-3.6c11.4-2.3,21.6,3.9,25.6,15.5
				C76.2,323.1,68.2,335.9,48.9,342.5z"/>
			<path d="M164.5,136.2c-52.3,18.1-78.4,70.8-60.6,122.2c17.8,51.4,71.1,76.7,123.2,58.7c52.1-18,78.2-70.8,60.4-122.1
				C269.7,143.6,216.6,118.2,164.5,136.2z M215.1,282.6c-30.4,10.5-62.5-5.7-73.6-37.2c-10.8-31.4,4.4-63.9,35-74.5
				c30.2-10.4,62.5,5.7,73.3,37.1C260.6,239.4,245.3,272.2,215.1,282.6z"/>
			<polygon points="571.7,129.4 450.3,41.2 412.7,54.2 472.8,228.1 509.2,215.5 467.8,95.9 571.7,171.3 			"/>
			<path d="M409.7,112.5c-11.2-32.3-40.6-43.2-80.2-29.5l-53.8,18.6l60.1,173.9l35.9-12.4l-24.6-71.2l72.4,54.7l45.6-15.8
				l-78.3-53.1C411.4,161.3,418.9,139.3,409.7,112.5z M351.5,165.3l-12.3,4.3L322.4,121l19.1-6.6c8-2.8,11.1-3,16.6-1.2
				c2,0.9,4.1,1.8,5.8,3.4c3.7,2.8,6,6.3,7.9,11.9C377.4,145,369.6,159,351.5,165.3z"/>
		</g>
	</g>
	<g>
		<g>
			<path d="M8.8,480.4c1.1,1,1.7,1.3,2.7,1.8c3,1.5,6,1.8,8.9,0.8c5-1.7,7.4-6.6,5.7-11.4c-0.7-2-2.1-3.6-3.8-4.4
				c-1.8-0.8-3.2-1.1-8.6-1.4c-3.3-0.2-4.6-0.4-6.3-0.9c-3.2-1.1-5.7-3.5-6.8-6.6c-2-5.9,1.1-12.1,7.2-14.2c1.3-0.5,2.7-0.7,3.9-0.8
				c3.1-0.1,4.7,0.3,7.7,2.2l-1.4,3.4c-3.3-2.2-5.9-2.6-8.9-1.6c-4.2,1.4-6.2,5.4-4.7,9.5c0.5,1.3,1.4,2.7,2.4,3.5
				c0.7,0.5,1.5,0.8,2.4,1.1c1.3,0.5,2.6,0.6,5.3,0.7c3.2,0.2,4.5,0.3,6.1,0.5c4.7,0.8,7.8,3.2,9.3,7.5c2.4,6.8-1.2,13.8-8.5,16.3
				c-3.8,1.3-7.8,1.1-11.3-0.6c-1.1-0.5-1.7-0.9-3.1-2L8.8,480.4z"/>
			<path d="M64.2,453.3c1,3,1.6,5.5,1.6,7.6c-0.1,6.2-4.3,11.8-10.7,14c-4.1,1.4-8.2,1.2-11.8-0.4c-4.2-2-6.6-5-8.7-11L26.1,439
				l3.6-1.2l8.8,25.5c2.5,7.3,8.8,10.7,15.4,8.4c6.7-2.3,9.6-8.8,7.1-16.1L52.2,430l3.6-1.2L64.2,453.3z"/>
			<path d="M64.8,425.6l10.3-3.5c6.8-2.4,12.8,0.5,15.1,7c1.5,4.2,0.7,8.6-2,11.6c-1.5,1.5-3.1,2.4-6.2,3.5l-6,2.1l6.3,18.2
				l-3.6,1.2L64.8,425.6z M74.9,443.2l5.4-1.9c5.7-2,7.9-5.9,6.1-11.1c-1.7-4.8-5.9-6.8-11-5l-6,2.1L74.9,443.2z"/>
			<path d="M91.8,416.3l19.9-6.8l1,3.2l-16.2,5.6l4.8,14l16.1-5.5l1.1,3.2l-16.1,5.5l5.7,16.6l16.2-5.6l1.1,3.2l-19.8,6.8
				L91.8,416.3z"/>
			<path d="M118.5,407.1l9.4-3.2c7.1-2.4,13.3,0.3,15.5,6.8c2.2,6.3-0.7,11.9-7.5,14.6l19.5,14l-4.5,1.6l-18.8-13.9l-2.4,0.8
				l6.3,18.3l-3.6,1.2L118.5,407.1z M128.6,424.9l4.1-1.4c5.9-2,8.4-6.4,6.7-11.3c-1.6-4.6-6.1-6.8-10.9-5.1l-5.5,1.9L128.6,424.9z"
				/>
			<path d="M147.1,397.3l3.6-1.2l13.8,40.1l-3.6,1.2L147.1,397.3z"/>
			<path d="M178.4,385.5c11.8-4.1,24.1,2,28.2,13.8c4.1,11.9-1.9,24.2-13.7,28.3c-11.8,4.1-24.1-2-28.2-13.8
				C160.5,401.9,166.6,389.5,178.4,385.5z M168.3,412.4c3.4,9.8,13.8,15.1,23.4,11.7c9.6-3.3,14.5-13.8,11.2-23.6
				c-3.4-9.8-13.8-15-23.3-11.7C169.9,392.1,164.9,402.6,168.3,412.4z"/>
			<path d="M206.7,376.7l9.4-3.2c7.1-2.4,13.3,0.3,15.5,6.8c2.2,6.3-0.7,11.9-7.5,14.6l19.5,14l-4.5,1.6l-18.8-13.9l-2.4,0.8
				l6.3,18.3l-3.6,1.2L206.7,376.7z M216.9,394.5l4.1-1.4c5.9-2,8.4-6.4,6.7-11.3c-1.6-4.6-6.1-6.8-10.9-5.1l-5.5,1.9L216.9,394.5z"
				/>
			<path d="M260.6,393.7c1.1,1,1.7,1.3,2.7,1.8c3,1.5,6,1.8,8.9,0.8c5-1.7,7.4-6.6,5.7-11.4c-0.7-2-2.1-3.6-3.8-4.4
				c-1.8-0.8-3.2-1.1-8.6-1.4c-3.3-0.2-4.6-0.4-6.3-0.9c-3.2-1.1-5.7-3.5-6.8-6.6c-2-5.9,1.1-12.1,7.2-14.2c1.3-0.5,2.7-0.7,3.9-0.8
				c3.1-0.1,4.7,0.3,7.7,2.2l-1.4,3.4c-3.3-2.2-5.9-2.6-8.9-1.6c-4.2,1.4-6.2,5.4-4.7,9.5c0.5,1.3,1.4,2.7,2.4,3.5
				c0.7,0.5,1.5,0.8,2.4,1.1c1.3,0.5,2.6,0.6,5.3,0.7c3.2,0.2,4.5,0.3,6.1,0.5c4.7,0.8,7.8,3.2,9.3,7.5c2.4,6.8-1.2,13.8-8.5,16.3
				c-3.8,1.3-7.8,1.1-11.3-0.6c-1.1-0.5-1.7-0.9-3.1-2L260.6,393.7z"/>
			<path d="M278.2,352.1l10.3-3.5c6.8-2.4,12.8,0.5,15.1,7c1.5,4.2,0.7,8.6-2,11.6c-1.5,1.5-3.1,2.4-6.2,3.5l-6,2.1l6.3,18.2
				l-3.6,1.2L278.2,352.1z M288.4,369.7l5.4-1.9c5.7-2,7.9-5.9,6.1-11.1c-1.7-4.8-5.9-6.8-11-5l-6,2.1L288.4,369.7z"/>
			<path d="M324.5,335.2c11.8-4.1,24.1,2,28.2,13.8c4.1,11.9-1.9,24.2-13.7,28.3c-11.8,4.1-24.1-2-28.2-13.8
				C306.6,351.6,312.7,339.2,324.5,335.2z M314.4,362.1c3.4,9.8,13.8,15.1,23.4,11.7c9.6-3.3,14.5-13.8,11.2-23.6
				c-3.4-9.8-13.8-15-23.3-11.7C316,341.8,311,352.3,314.4,362.1z"/>
			<path d="M352.9,326.4l9.4-3.2c7.1-2.4,13.3,0.3,15.5,6.8c2.2,6.3-0.7,11.9-7.5,14.6l19.5,14l-4.5,1.6l-18.8-13.9L364,347
				l6.3,18.3l-3.6,1.2L352.9,326.4z M363,344.2l4.1-1.4c5.9-2,8.4-6.4,6.7-11.3c-1.6-4.6-6.1-6.8-10.9-5.1l-5.5,1.9L363,344.2z"/>
			<path d="M377,318.1l23.8-8.2l1.1,3.2l-10.1,3.5l12.7,36.9l-3.6,1.2l-12.7-36.9l-10,3.4L377,318.1z"/>
		</g>
		<g>
			<path d="M415.9,340.2c1.1,1,1.7,1.3,2.7,1.8c3,1.5,6,1.8,8.9,0.8c5-1.7,7.4-6.6,5.7-11.4c-0.7-2-2.1-3.6-3.8-4.4
				c-1.8-0.8-3.2-1.1-8.6-1.4c-3.3-0.2-4.6-0.4-6.3-0.9c-3.2-1.1-5.7-3.5-6.8-6.6c-2-5.9,1.1-12.1,7.2-14.2c1.3-0.5,2.7-0.7,3.9-0.8
				c3.1-0.1,4.7,0.3,7.7,2.2l-1.4,3.4c-3.3-2.2-5.9-2.6-8.9-1.6c-4.2,1.4-6.2,5.4-4.7,9.5c0.5,1.3,1.4,2.7,2.4,3.5
				c0.7,0.5,1.5,0.8,2.4,1.1c1.3,0.5,2.6,0.6,5.3,0.7c3.2,0.2,4.5,0.3,6.1,0.5c4.7,0.8,7.8,3.2,9.3,7.5c2.4,6.8-1.2,13.8-8.5,16.3
				c-3.8,1.3-7.8,1.1-11.3-0.6c-1.1-0.5-1.7-0.9-3.1-2L415.9,340.2z"/>
		</g>
		<g>
			<path d="M483.9,290.9c-5.6-2.8-10.3-3.3-15.3-1.6c-9.5,3.3-14.4,13.8-11,23.5c3.4,9.8,13.7,14.9,23.3,11.6
				c4.9-1.7,7.8-4.4,10.9-10.4l1.5,4.3l-0.4,0.6c-3.7,5.2-6.1,7.1-10.8,8.7c-11.9,4.1-24.2-1.8-28.2-13.5c-4-11.7,2-24.3,13.7-28.3
				c5.1-1.8,9.1-1.6,14.7,0.4L483.9,290.9z"/>
			<path d="M500.6,274.1l32.3,35.2l-4,1.4l-9.1-10.3l-18.3,6.3l-0.9,13.7l-3.9,1.3L500.6,274.1z M501.9,303.1l15.5-5.3l-14.2-16
				L501.9,303.1z"/>
			<path d="M523.1,267.8l9.4-3.2c7.1-2.4,13.3,0.3,15.5,6.8c2.2,6.3-0.7,11.9-7.5,14.6l19.5,14l-4.5,1.6l-18.8-13.9l-2.4,0.8
				l6.3,18.3l-3.6,1.2L523.1,267.8z M533.3,285.6l4.1-1.4c5.9-2,8.4-6.4,6.7-11.3c-1.6-4.6-6.1-6.8-10.9-5.1l-5.5,1.9L533.3,285.6z"
				/>
			<path d="M551.6,258l19.9-6.8l1,3.2l-16.2,5.6l4.8,14l16.1-5.5l1.1,3.2l-16.1,5.5l5.7,16.6l16.2-5.6l1.1,3.2l-19.8,6.8L551.6,258z
				"/>
		</g>
	</g>
</g>
</svg>
