<svg height="38" viewBox="0 0 144 38" width="144" xmlns="http://www.w3.org/2000/svg"><path d="m144 36.0490074v-34.40570712c0-.71911477-.560269-1.2838948-1.274024-1.2838948h-2.446729c-.713755 0-1.274326.56478003-1.274326 1.2838948v20.38676682h-.203844l-6.728053-20.38676682c-.203844-.71911477-.96856-1.2838948-1.681712-1.2838948h-2.650573c-.713453 0-1.274326.56478003-1.274326 1.2838948v34.40570712c0 .7191148.560873 1.283591 1.274326 1.283591h2.446428c.713755 0 1.325286-.5644762 1.325286-1.283591v-20.3867668h.152883l6.728053 20.3867668c.203844.7191148 1.01922 1.283591 1.682014 1.283591h2.650573c.713755 0 1.274024-.5644762 1.274024-1.283591zm-24.155496 0-7.135741-34.40570712c-.152883-.71911477-.866638-1.2838948-1.580092-1.2838948h-3.211143c-.713454 0-1.427209.56478003-1.580092 1.2838948l-7.1357407 34.40570712c-.1528828.7191148.3057658 1.283591.9685597 1.283591h3.057959c.662795 0 1.375946-.5644762 1.529432-1.283591l1.426907-6.8296155h6.677093l1.427208 6.8296155c.152883.7191148.815376 1.283591 1.528829 1.283591h3.058562c.662191 0 1.121142-.5644762.968259-1.283591zm-8.155262-12.3242964h-4.383246l2.191322-13.96790042zm-19.2924937 12.3242964v-34.40570712c0-.71911477-.6115315-1.2838948-1.3252865-1.2838948h-3.0069984c-.713755 0-1.2743256.56478003-1.2743256 1.2838948v34.40570712c0 .7191148.5605706 1.283591 1.2743256 1.283591h3.0069984c.713755 0 1.3252865-.5644762 1.3252865-1.283591zm-24.0541774-26.75428958c0-3.08122599 1.6823149-3.59466239 2.8541155-3.59466239 2.2425839 0 2.5996121 1.33523844 3.2111437 3.90272423.1525813.61642744.5605706.82149824 1.0195208.77015464l3.0579593-.3591017c.713755-.05164746 1.0704818-.71911478 1.0195208-1.43822954-.4586487-3.79973314-2.1409635-8.57560306-8.3081446-8.57560306-4.2300615 0-8.3075416 2.97853872-8.3075416 9.50009238 0 10.47592532 11.315143 11.40011082 11.315143 18.89749752 0 3.081226-1.6823149 3.5946624-2.854417 3.5946624-2.4976903 0-3.2621047-2.516446-3.3640266-5.2379627-.0506594-1.0782164-.6627941-1.283591-1.3762476-1.2322474l-2.700931.2056784c-.7650175.0510398-1.2749287.3080618-1.2749287 1.3352384 0 6.674977 3.3643282 10.6293487 8.7161339 10.6293487 4.230363 0 8.3078431-2.9268913 8.3078431-9.4997886 0-10.8869783-11.315143-11.7601239-11.315143-18.89780128zm-9.932563-7.65141754c.2041454-.71911477-.1525813-1.2838948-.8660348-1.2838948h-3.1604843c-.713152 0-1.4778679.56478003-1.6817118 1.2838948l-4.7402741 15.50820962-4.7399726-15.50820962c-.2041454-.71911477-.9685599-1.2838948-1.6823149-1.2838948h-3.1092218c-.7131519 0-1.1211412.56478003-.9172973 1.2838948l7.6456521 22.13305822v12.2726489c0 .7191148.6115315 1.283591 1.3252865 1.283591h3.0066968c.7137551 0 1.2743256-.5644762 1.2743256-1.283591v-12.2726489zm-22.7991506 34.40570712v-2.9268913c0-.7191147-.6115316-1.2838948-1.3252866-1.2838948h-6.3713265v-30.19492102c0-.71911477-.6115316-1.2838948-1.3252866-1.2838948h-3.0069983c-.713755 0-1.2743256.56478003-1.2743256 1.2838948v34.40570712c0 .7191148.5605706 1.283591 1.2743256 1.283591h10.7036114c.713755 0 1.3252866-.5644762 1.3252866-1.283591zm-22.3079353 0v-2.9268913c0-.7191147-.6115315-1.2838948-1.3252865-1.2838948h-6.37132653v-10.2189033h6.37132653c.713755 0 1.3252865-.5650838 1.3252865-1.283591v-2.9785387c0-.6677711-.6115315-1.2838948-1.3252865-1.2838948h-6.37132653v-10.16786351h6.37132653c.713755 0 1.3252865-.61612368 1.3252865-1.33523844v-2.92689127c0-.71911477-.6115315-1.2838948-1.3252865-1.2838948h-10.70361144c-.71375502 0-1.27402406.56478003-1.27402406 1.2838948v34.40570712c0 .7191148.56026904 1.283591 1.27402406 1.283591h10.70361144c.713755 0 1.3252865-.5644762 1.3252865-1.283591z" fill="#547879" fill-rule="evenodd" transform=""/></svg>