<?xml version="1.0" encoding="utf-8"?>
<!-- Generator: Adobe Illustrator 23.0.1, SVG Export Plug-In . SVG Version: 6.00 Build 0)  -->
<svg version="1.1" id="Layer_1" xmlns="http://www.w3.org/2000/svg" xmlns:xlink="http://www.w3.org/1999/xlink" x="0px" y="0px"
	 viewBox="0 0 314.8 99.3" style="enable-background:new 0 0 314.8 99.3;" xml:space="preserve">
<style type="text/css">
	.st0{fill:#3F3647;}
</style>
<g>
	<g>
		<g>
			<g>
				<polygon class="st0" points="32.8,48.4 41.6,48.4 41.6,86.5 74.4,86.5 37.2,0 0,86.5 32.8,86.5 				"/>
				<rect x="32.8" y="86.5" class="st0" width="8.8" height="12.8"/>
			</g>
		</g>
	</g>
	<g>
		<path class="st0" d="M115.6,84.4c-2.7,1.6-5.5,2.4-8.4,2.4s-5.2-0.8-7.1-2.5c-1.8-1.7-2.8-4.2-2.8-7.5V60.3h-4.7l-0.1-5.9h4.8
			v-9.2h8.1v9.2h9.6v5.9h-9.5v15.1c0,1.5,0.3,2.6,0.9,3.3c0.6,0.6,1.5,1,2.6,1c1.2,0,2.8-0.5,4.8-1.4L115.6,84.4z"/>
		<path class="st0" d="M133.9,54.5c1.9-1.1,4.2-1.7,6.8-1.8v7.9c-3.5-0.2-6.2,0.6-8.3,2.4s-3.1,4.3-3.1,7.3v16.1h-8.1V53h8.1v6.4
			C130.5,57.3,132,55.6,133.9,54.5z"/>
		<path class="st0" d="M171.4,57.3c2.7,3,4,7.3,4,12.8c0,1.1,0,1.9-0.1,2.4h-24.7c0.5,2.4,1.7,4.2,3.3,5.6c1.7,1.4,3.8,2,6.2,2
			c1.7,0,3.3-0.3,4.9-1c1.6-0.6,2.9-1.6,4.1-2.8l4.4,4.6c-1.7,1.8-3.7,3.3-6.1,4.3c-2.4,1-5.1,1.5-8,1.5c-3.4,0-6.4-0.7-9-2.1
			s-4.6-3.4-6-6s-2.1-5.5-2.1-8.8s0.7-6.3,2.2-8.9c1.4-2.6,3.4-4.6,6-6s5.5-2.2,8.8-2.2C164.7,52.7,168.7,54.3,171.4,57.3z
			 M168,67.1c-0.1-2.5-0.9-4.4-2.4-5.9S162,59,159.5,59c-2.4,0-4.4,0.7-6,2.2c-1.6,1.4-2.6,3.4-3,5.9H168z"/>
		<path class="st0" d="M208.6,57.3c2.7,3,4,7.3,4,12.8c0,1.1,0,1.9-0.1,2.4h-24.7c0.5,2.4,1.7,4.2,3.3,5.6c1.7,1.4,3.8,2,6.2,2
			c1.7,0,3.3-0.3,4.9-1c1.6-0.6,2.9-1.6,4.1-2.8l4.4,4.6c-1.7,1.8-3.7,3.3-6.1,4.3c-2.4,1-5.1,1.5-8,1.5c-3.4,0-6.4-0.7-9-2.1
			s-4.6-3.4-6-6s-2.1-5.5-2.1-8.8s0.7-6.3,2.2-8.9c1.4-2.6,3.4-4.6,6-6s5.5-2.2,8.8-2.2C201.9,52.7,206,54.3,208.6,57.3z
			 M205.2,67.1c-0.1-2.5-0.9-4.4-2.4-5.9s-3.6-2.2-6.1-2.2c-2.4,0-4.4,0.7-6,2.2c-1.6,1.4-2.6,3.4-3,5.9H205.2z"/>
		<path class="st0" d="M246.5,56.1c2.2,2.3,3.3,5.4,3.3,9.4v20.9h-8.2V67.9c0-2.3-0.7-4.2-2-5.5c-1.3-1.4-3.1-2-5.4-2
			c-2.7,0-4.9,1-6.4,2.8c-1.6,1.8-2.4,4.1-2.4,6.9v16.4h-8.1V40h8.1v19.3c2.3-4.4,6.3-6.6,12.1-6.7
			C241.3,52.7,244.3,53.8,246.5,56.1z"/>
		<path class="st0" d="M287.1,53v33.4h-8.2v-6.2c-2.3,4.3-6.1,6.5-11.6,6.5c-3.8,0-6.7-1.1-8.9-3.4c-2.2-2.3-3.2-5.4-3.2-9.4V53h8.2
			v18.6c0,2.3,0.6,4.2,1.9,5.5s3,2,5.3,2c2.6,0,4.6-1,6.1-2.8s2.3-4.1,2.3-6.8V53H287.1z"/>
		<path class="st0" d="M314.8,84.4c-2.7,1.6-5.5,2.4-8.4,2.4s-5.2-0.8-7.1-2.5c-1.8-1.7-2.8-4.2-2.8-7.5V60.3h-4.7l-0.1-5.9h4.8
			v-9.2h8.1v9.2h9.6v5.9h-9.6v15.1c0,1.5,0.3,2.6,0.9,3.3c0.6,0.6,1.5,1,2.6,1c1.3,0,2.8-0.5,4.8-1.4L314.8,84.4z"/>
	</g>
</g>
</svg>
