<?xml version="1.0" encoding="utf-8"?>
<!-- Generator: Adobe Illustrator 19.1.0, SVG Export Plug-In . SVG Version: 6.00 Build 0)  -->
<svg version="1.1" id="Layer_1" xmlns="http://www.w3.org/2000/svg" xmlns:xlink="http://www.w3.org/1999/xlink" x="0px" y="0px"
	 viewBox="0 0 400 200" style="enable-background:new 0 0 400 200;" xml:space="preserve">
<style type="text/css">
	.st0{fill:#231F20;}
	.st1{fill:none;stroke:#231F20;stroke-width:5;}
	.st2{fill:none;}
	.st3{fill:#FFFFFF;}
	.st4{fill:none;stroke:#231F20;stroke-width:1.75;}
	.st5{fill:none;stroke:#0E2239;stroke-width:0.5;stroke-miterlimit:10;}
</style>
<g>
	<path class="st0" d="M259.2,117.4c-7,0-12.7,2.1-17.1,6.4c-4.4,4.2-6.5,9.9-6.5,17c0,7.1,2.2,12.8,6.5,17.1
		c4.4,4.3,10.1,6.5,17.1,6.5c3.4,0,6.8-0.6,10.1-1.8c3.9-1.5,6.6-3.5,7.9-6v8.5c-4.4,3.5-10.4,5.2-18.1,5.2c-8.9,0-16.2-2.7-21.8-8
		c-5.6-5.3-8.4-12.4-8.4-21.4c0-9,2.8-16.1,8.4-21.4c5.6-5.3,12.9-8,21.8-8c7.1,0,13.2,1.7,18.1,5.2v8.6
		C273.2,120.1,267.2,117.4,259.2,117.4z"/>
	<path class="st0" d="M285,169V66.2h5.9v54.5c2-6.1,7.8-9.1,17.5-9.1c15,0,22.5,8,22.5,24.1V169h-5.9c0-2.6,0.2-6.6,0.6-11.9
		c0.4-5.2,0.6-9.2,0.6-11.8c0-18.5-5.9-27.8-17.8-27.8c-12.5,0-18.8,9.3-18.8,27.8c0,3.4,0.1,6.7,0.3,9.7l0.9,14H285z"/>
</g>
<line class="st1" x1="326.9" y1="168.8" x2="326.9" y2="126.3"/>
<line class="st1" x1="289.1" y1="168.8" x2="289.1" y2="126.3"/>
<g>
	<path class="st0" d="M64.6,169.2v-56.5h5.9v7.3c2.1-5.5,6.2-8.2,12.3-8.2c6,0,10.3,1.6,12.9,4.8l-2.6,4.8c-2.7-2.4-5.7-3.7-9-3.7
		c-2.8,0-5.8,1.1-9,3.4c-3.1,2.3-4.7,4.7-4.7,7.5v40.7H64.6z"/>
	<path class="st0" d="M105.1,97c0-2.9,1.6-4.4,4.7-4.4c3.2,0,4.8,1.5,4.8,4.6c0,2.9-1.6,4.4-4.7,4.4C106.7,101.5,105.1,100,105.1,97
		z M106.9,112.7h5.9v56.5h-5.9V112.7z"/>
	<path class="st0" d="M177,112.6h5.9v56.7H177v-10c-6.3,7.5-14.1,11.3-23.6,11.3c-8.8,0-16.1-2.7-21.7-8.1
		c-5.7-5.4-8.5-12.4-8.5-21.1c0-8.8,2.8-15.9,8.4-21.3c5.6-5.5,12.9-8.2,21.8-8.2c10.2,0,18.1,3.7,23.6,11V112.6z M177,141.2
		c0-6.9-2.2-12.5-6.6-16.9c-4.4-4.4-10.1-6.6-17-6.6c-6.9,0-12.6,2.2-17,6.6c-4.4,4.4-6.6,10-6.6,16.9c0,6.9,2.2,12.5,6.6,16.9
		c4.4,4.4,10.1,6.6,17,6.6c6.9,0,12.6-2.2,17-6.6C174.8,153.7,177,148.1,177,141.2z"/>
	<path class="st0" d="M193.5,169.2v-56.5h5.9v7.3c2.1-5.5,6.2-8.2,12.3-8.2c6,0,10.3,1.6,12.9,4.8l-2.6,4.8c-2.7-2.4-5.7-3.7-9-3.7
		c-2.8,0-5.8,1.1-9,3.4c-3.1,2.3-4.7,4.7-4.7,7.5v40.7H193.5z"/>
</g>
<g>
	<path class="st0" d="M339.9,112.7l21.7,43.8l19.5-43.7l6.1,0l-37.6,82.9l-6.1,0l15.1-33l-25-50L339.9,112.7z"/>
</g>
<g>
	<path class="st0" d="M6.4,66.5h51.4v5.9H35.1v96.9h-5.9V72.3H6.4V66.5z"/>
</g>
<polyline class="st2" points="-15,-10.9 -13.1,207.7 531.3,207.7 "/>
<path class="st3" d="M328.9,63.6c1.1,0,1.1-1.7,0-1.7C327.8,61.9,327.8,63.6,328.9,63.6z"/>
<path class="st3" d="M329.4,63.1c1.1,0,1.1-1.7,0-1.7C328.2,61.3,328.2,63.1,329.4,63.1z"/>
<path class="st3" d="M329,63.4c1.1,0,1.1-1.7,0-1.7C327.9,61.6,327.9,63.4,329,63.4z"/>
<path class="st3" d="M329.4,63.7c1.1,0,1.1-1.7,0-1.7C328.2,62,328.2,63.7,329.4,63.7z"/>
<path class="st3" d="M329,64c1.1,0,1.1-1.7,0-1.7C327.9,62.3,327.9,64,329,64z"/>
<path class="st4" d="M329.4,60.3"/>
<g>
	<path class="st5" d="M347.6,15.2c-21.1,0-38.3,17.2-38.3,38.3s17.2,38.3,38.3,38.3c21.1,0,38.3-17.2,38.3-38.3
		S368.8,15.2,347.6,15.2z M347.6,91.4c-20.9,0-37.9-17-37.9-37.9c0-20.9,17-37.9,37.9-37.9c20.9,0,37.9,17,37.9,37.9
		C385.5,74.4,368.5,91.4,347.6,91.4z"/>
	<path class="st5" d="M347.6,94.4c22.5,0,40.8-18.3,40.8-40.8c0-22.5-18.3-40.8-40.8-40.8c-22.5,0-40.8,18.3-40.8,40.8
		C306.8,76.1,325.1,94.4,347.6,94.4"/>
	<path class="st5" d="M347.6,93.9c-22.3,0-40.4-18.1-40.4-40.4c0-22.3,18.1-40.4,40.4-40.4c22.3,0,40.4,18.1,40.4,40.4
		C388,75.8,369.9,93.9,347.6,93.9"/>
	<g>
		<path class="st5" d="M319.6,50.4l-0.3-0.1V35.7l0.3-0.1l5,6.7l0,0.2L319.6,50.4z M319.6,36.3v13.4l4.6-7.3L319.6,36.3z"/>
		<path class="st5" d="M347.7,38.5c-3.7,0-19.4-0.4-22.4-0.8c-2-0.3-5.8-1.7-6-1.8l0.1-0.3c0,0,3.9,1.5,5.9,1.8
			c3,0.4,18.6,0.8,22.3,0.8c0,0,0,0,0,0L347.7,38.5C347.7,38.5,347.7,38.5,347.7,38.5z"/>
		<polygon class="st5" points="342.8,52 337.7,47 324.8,47 319.5,50.4 319.3,50.1 324.6,46.7 324.7,46.7 337.8,46.7 337.9,46.7 
			343,51.6 347.4,47.1 337.8,42.6 324.4,42.6 324.4,42.2 337.8,42.2 337.9,42.2 347.7,46.9 347.8,47.2 343.1,52 		"/>
		<rect x="337.6" y="42.4" class="st5" width="0.4" height="4.4"/>
		<polygon class="st5" points="347.6,83.8 339.2,76.9 339.2,76.6 342.8,73.7 342.8,51.8 343.1,51.8 343.1,73.7 343.1,73.9 
			339.6,76.8 347.5,83.2 347.5,47.1 347.9,47.1 347.9,83.6 		"/>
		
			<rect x="342.3" y="75.5" transform="matrix(0.7706 0.6373 -0.6373 0.7706 127.4746 -202.7037)" class="st5" width="6.1" height="0.4"/>
		<path class="st5" d="M375.8,50.4l-5-7.9l0-0.2l5-6.7l0.3,0.1v14.6L375.8,50.4z M371.1,42.4l4.6,7.3V36.3L371.1,42.4z"/>
		<path class="st5" d="M347.7,38.5C347.7,38.5,347.7,38.5,347.7,38.5l0-0.4c0,0,0,0,0,0c3.7,0,19.4-0.4,22.3-0.8
			c1.9-0.3,5.8-1.8,5.9-1.8l0.1,0.3c-0.2,0.1-4,1.5-6,1.8C367.1,38.1,351.4,38.5,347.7,38.5z"/>
		<polygon class="st5" points="352.5,52 352.3,52 347.6,47.2 347.6,46.9 357.5,42.2 357.6,42.2 370.9,42.2 370.9,42.6 357.6,42.6 
			348,47.1 352.4,51.6 357.5,46.7 357.6,46.7 370.6,46.7 370.7,46.7 376.1,50.1 375.9,50.4 370.6,47 357.6,47 		"/>
		<rect x="357.4" y="42.4" class="st5" width="0.4" height="4.4"/>
		<polygon class="st5" points="347.8,83.8 347.6,83.5 355.7,76.8 352.3,73.9 352.2,73.7 352.2,51.8 352.6,51.8 352.6,73.7 
			356.1,76.6 356.1,76.9 		"/>
		
			<rect x="349.9" y="72.7" transform="matrix(0.6386 0.7696 -0.7696 0.6386 184.7943 -242.0237)" class="st5" width="0.4" height="6.1"/>
	</g>
</g>
</svg>
