<?xml version="1.0" encoding="utf-8"?>
<!-- Generator: Adobe Illustrator 19.2.0, SVG Export Plug-In . SVG Version: 6.00 Build 0)  -->
<svg version="1.1" id="Layer_1" xmlns="http://www.w3.org/2000/svg" xmlns:xlink="http://www.w3.org/1999/xlink" x="0px" y="0px"
	 viewBox="0 0 307.9 58.8" style="enable-background:new 0 0 307.9 58.8;" xml:space="preserve" height="67" width="350">
<style type="text/css">
	.st0{fill:#D9D4D2;}
	.st1{fill:#E0DEDC;}
	.st2{fill:#F8F2E6;}
	.st3{fill:#3E3A35;}
	.st4{fill:none;}
	.st5{fill:#802729;}
	.st6{fill:#F2E4B1;}
	.st7{fill:#D3B886;}
</style>
<path class="st0" d="M27.9,58.6v-0.2V58.6z"/>
<path class="st0" d="M6.7,58.6v-0.2V58.6z"/>
<path class="st1" d="M27.9,58.6v-0.2V58.6z"/>
<rect x="162.1" y="58.4" class="st2" width="3.2" height="0.2"/>
<polygon class="st3" points="196.6,9.8 195.2,9.8 191.8,18.2 191.7,18.2 188.4,9.8 186.9,9.8 191.1,20 192.3,20 "/>
<path class="st3" d="M203.9,9.8h-1.2l-4.8,10.1h1.5l1.1-2.5h5.4l1.1,2.5h1.5L203.9,9.8z M201,16.3l2.3-5l0,0l2.1,5H201z"/>
<polygon class="st3" points="221.6,9.8 220.3,9.8 220.3,18.2 220.3,18.2 214,9.8 212.4,9.8 212.4,19.9 213.6,19.9 213.6,11.5 
	213.7,11.5 220,19.9 221.6,19.9 "/>
<g>
	<path class="st3" d="M231.5,9.3c-0.8,0-1.6,0.1-2.2,0.4c-0.7,0.3-1.3,0.7-1.8,1.1c-0.5,0.5-0.9,1-1.1,1.7c-0.3,0.6-0.4,1.3-0.4,2.1
		c0,0.8,0.1,1.5,0.4,2.1s0.7,1.2,1.2,1.7s1.1,0.8,1.8,1.1c0.7,0.3,1.4,0.4,2.2,0.4c0.9,0,1.7-0.1,2.3-0.4c0.7-0.3,1.3-0.7,1.8-1.3
		l-1-0.8c-0.4,0.5-0.8,0.8-1.4,1c-0.5,0.2-1.1,0.4-1.8,0.4c-0.6,0-1.2-0.1-1.7-0.3c-0.5-0.2-0.9-0.5-1.3-0.9s-0.6-0.8-0.9-1.3
		c-0.2-0.5-0.3-1.1-0.3-1.6c0-0.6,0.1-1.1,0.3-1.6c0.2-0.5,0.5-1,0.9-1.3c0.4-0.4,0.8-0.7,1.3-0.9c0.5-0.2,1.1-0.3,1.7-0.3
		c0.5,0,1,0.1,1.5,0.3c0.5,0.2,0.9,0.5,1.2,0.9l1.1-0.8c-0.5-0.6-1-1-1.7-1.2C232.9,9.4,232.2,9.3,231.5,9.3"/>
	<path class="st3" d="M245.2,9.3c-0.8,0-1.6,0.1-2.3,0.4c-0.7,0.3-1.3,0.6-1.8,1.1s-0.9,1-1.2,1.7c-0.3,0.7-0.4,1.4-0.4,2.1
		c0,0.8,0.1,1.5,0.4,2.1c0.3,0.7,0.7,1.2,1.2,1.7s1.1,0.8,1.8,1.1c0.7,0.3,1.5,0.4,2.3,0.4s1.6-0.1,2.3-0.4c0.7-0.3,1.3-0.6,1.8-1.1
		s0.9-1,1.2-1.7c0.3-0.7,0.4-1.4,0.4-2.1c0-0.8-0.1-1.5-0.4-2.1c-0.3-0.7-0.7-1.2-1.2-1.7s-1.1-0.8-1.8-1.1
		C246.8,9.5,246.1,9.3,245.2,9.3 M245.2,18.8c-0.6,0-1.2-0.1-1.7-0.3c-0.5-0.2-1-0.5-1.4-0.9s-0.7-0.8-0.9-1.3
		c-0.2-0.5-0.3-1.1-0.3-1.6c0-0.6,0.1-1.1,0.3-1.6c0.2-0.5,0.5-1,0.9-1.3c0.4-0.4,0.8-0.7,1.4-0.9c0.5-0.2,1.1-0.3,1.7-0.3
		s1.2,0.1,1.7,0.3c0.5,0.2,1,0.5,1.4,0.9s0.7,0.8,0.9,1.3s0.3,1.1,0.3,1.6c0,0.6-0.1,1.1-0.3,1.6c-0.2,0.5-0.5,1-0.9,1.3
		c-0.4,0.4-0.8,0.7-1.4,0.9C246.4,18.7,245.9,18.8,245.2,18.8"/>
	<path class="st3" d="M263.1,9.6h-1.3v6.1c0,0.4,0,0.8-0.1,1.2s-0.2,0.7-0.5,1c-0.2,0.3-0.5,0.5-0.9,0.7s-0.8,0.3-1.4,0.3
		c-0.5,0-1-0.1-1.4-0.3c-0.4-0.2-0.6-0.4-0.9-0.7c-0.2-0.3-0.4-0.6-0.5-1s-0.1-0.8-0.1-1.2V9.6h-1.3v6.3c0,0.6,0.1,1.1,0.2,1.6
		s0.4,0.9,0.7,1.3c0.3,0.4,0.7,0.7,1.3,0.9c0.5,0.2,1.2,0.3,1.9,0.3c0.7,0,1.4-0.1,1.9-0.3c0.5-0.2,0.9-0.5,1.3-0.9
		c0.3-0.4,0.6-0.8,0.7-1.3s0.2-1,0.2-1.6V9.6H263.1z"/>
</g>
<polygon class="st3" points="276.6,9.8 275.2,9.8 271.8,18.1 271.8,18.1 268.4,9.8 267,9.8 271.1,19.9 272.4,19.9 "/>
<polygon class="st3" points="286.8,9.8 280,9.8 280,19.9 287.1,19.9 287.1,18.8 281.3,18.8 281.3,15.2 286.4,15.2 286.4,14.1 
	281.3,14.1 281.3,10.9 286.8,10.9 "/>
<g>
	<path class="st3" d="M294.8,9.8H292v10.1h1.3v-4.5h1.7l2.9,4.5h1.6l-3.1-4.7c0.8-0.1,1.5-0.4,2-0.9s0.7-1.1,0.7-1.8
		c0-0.6-0.1-1.1-0.4-1.5s-0.6-0.6-1-0.8c-0.4-0.2-0.9-0.3-1.4-0.4C295.9,9.9,295.4,9.8,294.8,9.8 M293.4,14.3V11h1.8
		c0.3,0,0.6,0,0.9,0.1c0.3,0,0.6,0.1,0.8,0.2c0.3,0.1,0.5,0.3,0.6,0.5c0.2,0.2,0.2,0.5,0.2,0.9s-0.1,0.7-0.3,1
		c-0.2,0.2-0.5,0.4-0.8,0.5s-0.7,0.2-1.1,0.2s-0.8,0-1.1,0h-1V14.3z"/>
</g>
<polygon class="st3" points="193.6,46.2 186.8,46.2 186.8,56.3 188.1,56.3 188.1,51.8 193.2,51.8 193.2,50.7 188.1,50.7 188.1,47.3 
	193.6,47.3 "/>
<g>
	<path class="st3" d="M203.1,46.2c-0.8,0-1.6,0.1-2.3,0.4c-0.7,0.3-1.3,0.6-1.8,1.1s-0.9,1-1.2,1.7c-0.3,0.7-0.4,1.4-0.4,2.1
		c0,0.8,0.1,1.5,0.4,2.1c0.3,0.7,0.7,1.2,1.2,1.7s1.1,0.8,1.8,1.1c0.7,0.3,1.5,0.4,2.3,0.4s1.6-0.1,2.3-0.4c0.7-0.3,1.3-0.6,1.8-1.1
		s0.9-1,1.2-1.7c0.3-0.7,0.4-1.4,0.4-2.1c0-0.8-0.1-1.5-0.4-2.1c-0.3-0.7-0.7-1.2-1.2-1.7s-1.1-0.8-1.8-1.1
		C204.7,46.3,204,46.2,203.1,46.2 M203.1,55.7c-0.6,0-1.2-0.1-1.7-0.3c-0.5-0.2-1-0.5-1.4-0.9s-0.7-0.8-0.9-1.3
		c-0.2-0.5-0.3-1.1-0.3-1.6c0-0.6,0.1-1.1,0.3-1.6c0.2-0.5,0.5-1,0.9-1.3c0.4-0.4,0.8-0.7,1.4-0.9c0.5-0.2,1.1-0.3,1.7-0.3
		s1.2,0.1,1.7,0.3c0.5,0.2,1,0.5,1.4,0.9s0.7,0.8,0.9,1.3c0.2,0.5,0.3,1.1,0.3,1.6c0,0.6-0.1,1.1-0.3,1.6c-0.2,0.5-0.5,1-0.9,1.3
		c-0.4,0.4-0.8,0.7-1.4,0.9C204.3,55.6,203.8,55.7,203.1,55.7"/>
	<path class="st3" d="M221.1,46.2h-1.3v6.1c0,0.4,0,0.8-0.1,1.2c-0.1,0.4-0.2,0.7-0.5,1c-0.2,0.3-0.5,0.5-0.9,0.7s-0.8,0.3-1.4,0.3
		c-0.5,0-1-0.1-1.4-0.3c-0.4-0.2-0.6-0.4-0.9-0.7c-0.2-0.3-0.4-0.6-0.5-1s-0.1-0.8-0.1-1.2v-6.1h-1.3v6.3c0,0.6,0.1,1.1,0.2,1.6
		s0.4,0.9,0.7,1.3c0.3,0.4,0.7,0.7,1.3,0.9c0.5,0.2,1.2,0.3,1.9,0.3c0.7,0,1.4-0.1,1.9-0.3c0.5-0.2,0.9-0.5,1.3-0.9
		c0.3-0.4,0.6-0.8,0.7-1.3s0.2-1,0.2-1.6v-6.3H221.1z"/>
</g>
<polygon class="st3" points="235.3,46.2 234,46.2 234,54.6 234,54.6 227.7,46.2 226.1,46.2 226.1,56.3 227.4,56.3 227.4,47.9 
	227.4,47.9 233.7,56.3 235.3,56.3 "/>
<g>
	<path class="st3" d="M244.7,46.2h-4.2v10.1h4.2c0.4,0,0.7,0,1.1-0.1s0.8-0.2,1.2-0.4c0.4-0.2,0.8-0.4,1.1-0.7s0.7-0.6,1-1
		s0.5-0.8,0.7-1.3s0.2-1,0.2-1.7c0-0.6-0.1-1.2-0.2-1.7s-0.4-0.9-0.7-1.3c-0.3-0.4-0.6-0.7-1-1s-0.7-0.5-1.1-0.7s-0.8-0.3-1.2-0.4
		C245.4,46.2,245,46.2,244.7,46.2 M241.8,55.2v-7.9h2.5c0.6,0,1.2,0.1,1.7,0.2c0.5,0.2,1,0.4,1.4,0.7c0.4,0.3,0.7,0.7,0.9,1.2
		c0.2,0.5,0.3,1.1,0.3,1.8c0,0.7-0.1,1.3-0.3,1.8c-0.2,0.5-0.5,0.9-0.9,1.2c-0.4,0.3-0.9,0.6-1.4,0.7c-0.5,0.2-1.1,0.2-1.7,0.2
		L241.8,55.2L241.8,55.2z"/>
</g>
<path class="st3" d="M258.9,46.2h-1.2l-4.8,10.1h1.5l1.1-2.5h5.4l1.1,2.5h1.5L258.9,46.2z M256,52.7l2.3-5l0,0l2.2,5H256z"/>
<polygon class="st3" points="273.8,46.2 265.3,46.2 265.3,47.3 268.9,47.3 268.9,56.3 270.2,56.3 270.2,47.3 273.8,47.3 "/>
<rect x="277" y="46.2" class="st3" width="1.3" height="10.1"/>
<g>
	<path class="st3" d="M288.6,46.2c-0.8,0-1.6,0.1-2.3,0.4c-0.7,0.3-1.3,0.6-1.8,1.1s-0.9,1-1.2,1.7c-0.3,0.7-0.4,1.4-0.4,2.1
		c0,0.8,0.1,1.5,0.4,2.1c0.3,0.7,0.7,1.2,1.2,1.7s1.1,0.8,1.8,1.1c0.7,0.3,1.5,0.4,2.3,0.4s1.6-0.1,2.3-0.4c0.7-0.3,1.3-0.6,1.8-1.1
		s0.9-1,1.2-1.7c0.3-0.7,0.4-1.4,0.4-2.1c0-0.8-0.1-1.5-0.4-2.1c-0.3-0.7-0.7-1.2-1.2-1.7s-1.1-0.8-1.8-1.1
		C290.2,46.3,289.4,46.2,288.6,46.2 M288.6,55.7c-0.6,0-1.2-0.1-1.7-0.3c-0.5-0.2-1-0.5-1.4-0.9s-0.7-0.8-0.9-1.3
		c-0.2-0.5-0.3-1.1-0.3-1.6c0-0.6,0.1-1.1,0.3-1.6c0.2-0.5,0.5-1,0.9-1.3c0.4-0.4,0.8-0.7,1.4-0.9c0.5-0.2,1.1-0.3,1.7-0.3
		s1.2,0.1,1.7,0.3c0.5,0.2,1,0.5,1.4,0.9s0.7,0.8,0.9,1.3c0.2,0.5,0.3,1.1,0.3,1.6c0,0.6-0.1,1.1-0.3,1.6c-0.2,0.5-0.5,1-0.9,1.3
		c-0.4,0.4-0.8,0.7-1.4,0.9C289.8,55.6,289.2,55.7,288.6,55.7"/>
</g>
<polygon class="st3" points="307.9,46.2 306.6,46.2 306.6,54.6 306.5,54.6 300.3,46.2 298.6,46.2 298.6,56.3 299.9,56.3 299.9,47.9 
	299.9,47.9 306.2,56.3 307.9,56.3 "/>
<polygon class="st3" points="196.2,28.1 193.8,28.1 193.8,31.9 189.2,31.9 189.2,28.1 186.8,28.1 186.8,38.3 189.2,38.3 189.2,33.9 
	193.8,33.9 193.8,38.3 196.2,38.3 "/>
<polygon class="st3" points="208.6,28.2 201.2,28.2 201.2,38.3 208.9,38.3 208.9,36.2 203.6,36.2 203.6,34.2 208.3,34.2 208.3,32.1 
	203.6,32.1 203.6,30.2 208.6,30.2 "/>
<g>
	<path class="st3" d="M217.1,28.2h-4.2v10.1h2.4v-4h1.2l2.3,4h2.9l-2.8-4.3c0.8-0.1,1.4-0.4,1.7-1c0.4-0.5,0.6-1.1,0.6-1.8
		c0-0.6-0.1-1.1-0.3-1.5c-0.2-0.4-0.5-0.7-0.9-0.9c-0.4-0.2-0.8-0.4-1.3-0.5C218.2,28.2,217.7,28.2,217.1,28.2 M215.3,32.3V30h1.6
		c0.2,0,0.4,0,0.7,0c0.2,0,0.4,0.1,0.6,0.2s0.3,0.2,0.4,0.3c0.1,0.2,0.2,0.4,0.2,0.6c0,0.3-0.1,0.5-0.2,0.6
		c-0.1,0.2-0.3,0.3-0.5,0.3c-0.2,0.1-0.4,0.1-0.7,0.1c-0.2,0-0.5,0-0.7,0h-1.4V32.3z"/>
</g>
<rect x="225" y="28.2" class="st3" width="2.4" height="10.1"/>
<polygon class="st3" points="239.5,28.1 230.9,28.1 230.9,30.1 234,30.1 234,38.3 236.4,38.3 236.4,30.1 239.5,30.1 "/>
<path class="st3" d="M247.4,28.2h-2l-4.7,10.1h2.6l0.9-2.1h4.2l0.9,2.1h2.7L247.4,28.2z M245,34.2l1.3-3.1l1.3,3.1H245z"/>
<g>
	<path class="st3" d="M260,27.6c-0.9,0-1.6,0.1-2.4,0.4c-0.7,0.2-1.3,0.6-1.9,1.1c-0.5,0.5-0.9,1-1.2,1.7c-0.3,0.7-0.4,1.4-0.4,2.2
		c0,0.8,0.1,1.5,0.4,2.2s0.7,1.2,1.2,1.7s1.1,0.8,1.9,1.1c0.7,0.2,1.5,0.4,2.4,0.4c0.8,0,1.6-0.1,2.4-0.2c0.8-0.2,1.5-0.4,2.2-0.7
		v-5.3h-4.3v2.1h2v1.6c-0.2,0.1-0.5,0.2-0.9,0.3c-0.4,0.1-0.8,0.2-1.4,0.2c-0.5,0-1-0.1-1.4-0.2c-0.4-0.2-0.8-0.4-1.1-0.7
		c-0.3-0.3-0.5-0.6-0.7-1s-0.2-0.8-0.2-1.3s0.1-0.9,0.2-1.3c0.2-0.4,0.4-0.7,0.7-1c0.3-0.3,0.7-0.5,1.1-0.7s0.9-0.2,1.4-0.2
		c0.6,0,1.1,0.1,1.5,0.2c0.4,0.2,0.8,0.4,1.1,0.7l1.7-1.7c-0.6-0.5-1.2-0.8-1.9-1C261.7,27.7,260.9,27.6,260,27.6"/>
</g>
<polygon class="st3" points="276.5,28.2 269.1,28.2 269.1,38.3 276.7,38.3 276.7,36.2 271.5,36.2 271.5,34.2 276.2,34.2 276.2,32.1 
	271.5,32.1 271.5,30.2 276.5,30.2 "/>
<g>
	<path class="st4" d="M58.9,30.2C58.8,30.2,58.8,30.2,58.9,30.2c-0.5-0.2-1.3-0.3-2.1-0.3s-1.6,0.1-2,0.3c-0.2,0-0.3,0-0.2,0.2
		c-0.4,0.7-0.4,3,0,3.7c0,0.1,0,0.2,0.2,0.2c0,0,0,0,0.1,0c0.3,0.2,1.1,0.3,1.9,0.3c0.8,0,1.5-0.1,1.9-0.3c0.2-0.1,0.5,0,0.5-0.2
		c0.4-0.7,0.4-3,0-3.7C59,30.3,59,30.2,58.9,30.2z"/>
	<path class="st4" d="M65.5,36.2c0-0.1,0-0.2-0.2-0.2c0,0,0,0-0.1,0c-0.4-0.2-1.2-0.3-2-0.3s-1.6,0.1-2,0.3c-0.2,0-0.3,0-0.2,0.2
		c-0.4,0.7-0.4,3,0,3.7c0,0.1,0,0.2,0.2,0.2c0,0,0,0,0.1,0c0.4,0.2,1.2,0.3,2,0.3s1.6-0.1,2-0.3c0.2,0,0.3,0,0.2-0.2
		C65.9,39.2,65.9,36.9,65.5,36.2z"/>
	<path class="st4" d="M59,36.2c0-0.1,0-0.2-0.2-0.2c0,0,0,0-0.1,0c-0.4-0.2-1.2-0.3-2-0.3s-1.6,0.1-2,0.3c-0.2,0-0.3,0-0.2,0.2
		c-0.4,0.7-0.4,3,0,3.7c0,0.1,0,0.2,0.2,0.2c0,0,0,0,0.1,0c0.4,0.2,1.2,0.3,2,0.3s1.6-0.1,2-0.3c0.2,0,0.3,0,0.2-0.2
		C59.5,39.2,59.5,36.9,59,36.2z"/>
	<path class="st4" d="M119,56.6L119,56.6L119,56.6L119,56.6z"/>
	<path class="st4" d="M70.9,55.2c0.1,0.4,0.5,0.8,1,1.1v0.2l0,0v-0.2l0,0l0,0C71.4,56,71.1,55.6,70.9,55.2c-0.8-2,3.5-4.4,5-5.6
		c0.6-0.5,1.2-1,1.9-1.5c-0.6,0.5-1.2,1-1.9,1.5C74.4,50.9,70.2,53.2,70.9,55.2z"/>
	<path class="st4" d="M119.5,52.9L119.5,52.9c-0.3,0-0.6,0-0.8,0C119,52.9,119.2,52.9,119.5,52.9z"/>
	<path class="st4" d="M119.5,52.9c0.6,0,1,0,1.3-0.1C120.5,52.9,120.1,52.9,119.5,52.9L119.5,52.9z"/>
	<path class="st4" d="M65.3,30.2L65.3,30.2c-0.5-0.2-1.3-0.3-2.1-0.3s-1.6,0.1-2,0.3c-0.2,0-0.3,0-0.2,0.2c-0.4,0.7-0.4,3,0,3.7
		c0,0.1,0,0.2,0.2,0.2c0,0,0,0,0.1,0c0.3,0.2,1.1,0.3,1.9,0.3c0.8,0,1.5-0.1,1.9-0.3c0.2-0.1,0.5,0,0.5-0.2c0.4-0.7,0.4-3,0-3.7
		C65.5,30.3,65.5,30.2,65.3,30.2z"/>
	<path class="st4" d="M79.1,52.4L79.1,52.4L79.1,52.4L79.1,52.4z"/>
	<path class="st4" d="M122,56.5c0.2,0,0.4,0,0.6,0c0.3,0,0.5,0,0.8,0c-0.3,0-0.5,0-0.8,0C122.4,56.5,122.2,56.5,122,56.5z"/>
	<path class="st4" d="M124,48.7c-5.3-4.5-11.9-9.2-16.6-13.7C112.2,39.5,118.7,44.2,124,48.7c1.1,1,4,2.9,5.1,4.7
		C128,51.6,125.1,49.6,124,48.7z"/>
	<path class="st4" d="M127.8,56.3L127.8,56.3L127.8,56.3z"/>
	<path class="st4" d="M127.2,56.4c-0.6,0.1-1.3,0.2-2,0.2C125.9,56.6,126.6,56.5,127.2,56.4z"/>
	<path class="st4" d="M117.8,58.5l0.1-0.1C117.9,58.4,117.9,58.4,117.8,58.5z"/>
	<polygon class="st4" points="118,58.4 118,58.4 118,58.4 	"/>
	<polygon class="st4" points="119.3,56.6 119.3,56.3 119.3,56.3 119.3,56.3 	"/>
	<path class="st4" d="M120.3,52.6c-0.2,0-0.5,0-0.7,0.1C119.9,52.6,120.1,52.6,120.3,52.6z"/>
	<path class="st4" d="M123.7,56.6L123.7,56.6c0.2,0,0.3,0,0.5,0C124,56.6,123.9,56.6,123.7,56.6L123.7,56.6z"/>
	<path class="st4" d="M116.3,52.8c0.4,0,0.8,0,1.3,0c0.1,0,0.1,0,0.2,0c-0.1,0-0.1,0-0.2,0C117.1,52.8,116.7,52.8,116.3,52.8z"/>
	<path class="st4" d="M115.3,52.8L115.3,52.8c0.3,0,0.6-0.1,0.9-0.1l0,0C115.9,52.8,115.6,52.8,115.3,52.8z"/>
	<rect x="115.3" y="52.6" class="st4" width="0" height="0.2"/>
	<path class="st4" d="M116.8,52.6c0.3,0,0.6,0,0.9,0c0,0,0,0,0.1,0c0,0,0,0-0.1,0C117.4,52.6,117.1,52.6,116.8,52.6z"/>
	<path class="st4" d="M101.3,52.6c-1.4,0-2.8,0-4.2,0C98.5,52.6,99.9,52.6,101.3,52.6c2.7,0,5.4,0,8.1,0c1.1,0,2.2,0,3.3,0
		c-1.1,0-2.2,0-3.3,0C106.7,52.6,104,52.6,101.3,52.6z"/>
	<path class="st4" d="M117.9,52.9L117.9,52.9c0.1,0,0.1,0,0.1,0S118,52.9,117.9,52.9L117.9,52.9z"/>
	<path class="st4" d="M105.3,41L105.3,41L105.3,41L105.3,41c5.2,3.8,11.6,8.1,16,11.4l0,0l0,0l0,0l0,0c0,0.1-0.1,0.2-0.2,0.3
		c0.1-0.1,0.1-0.2,0.2-0.3C116.9,49.1,110.5,44.8,105.3,41L105.3,41z"/>
	<path class="st4" d="M117.8,52.8C117.8,52.8,117.9,52.8,117.8,52.8C117.9,52.8,117.9,52.8,117.8,52.8
		C117.9,52.8,117.9,52.8,117.8,52.8C117.9,52.8,117.8,52.8,117.8,52.8z"/>
	<path class="st4" d="M80.5,52.4c4.1,0.2,8.4,0.2,12.7,0.2c0.3,0,0.6,0,0.8,0c-0.3,0-0.5,0-0.8,0C88.9,52.7,84.6,52.6,80.5,52.4z"/>
	<path class="st4" d="M97.1,39.4L97.1,39.4L97.1,39.4z"/>
	<path class="st4" d="M105.3,41L105.3,41L105.3,41L105.3,41c-0.2-0.1-0.4-0.3-0.5-0.5C104.9,40.7,105.1,40.9,105.3,41L105.3,41z"/>
	<path class="st4" d="M97.1,39.4L97.1,39.4c-6,4.3-11.9,8.7-17.9,13l0,0l0,0l0,0C85.2,48.1,91.1,43.7,97.1,39.4L97.1,39.4z"/>
	<path class="st4" d="M100.1,37.1L100.1,37.1c-0.2,0-0.9,0.7-1.6,1.3C99.2,37.8,99.9,37.1,100.1,37.1L100.1,37.1z"/>
	<line class="st4" x1="48.8" y1="58.5" x2="48.8" y2="58.6"/>
	<path class="st5" d="M72,56.6L72,56.6v-0.2c-0.6-0.4-0.9-0.7-1-1.1c-0.8-2,3.5-4.4,5-5.6c0.6-0.5,1.2-1,1.9-1.5
		c2.7-2.2,5.4-4.6,7.9-6.8c2.3-1.9,4.4-3.8,6.3-5.3c-10.3-7.5-20.7-15-30.8-22.7C52.1,20,42.2,27.3,31.9,34.9
		C25,40,17.2,45.7,10,51.1c-2.5,1.8-6,5-8.5,5.1c-0.1,1.2,0,2.3,1.2,2.3l0,0h4l0,0h21.1l0,0h20.9l0,0H63h8.7
		c-0.1-0.1-0.1-0.2-0.2-0.3l0,0C71.3,57.6,71.5,56.7,72,56.6z M58.8,40.2c-0.4,0.2-1.2,0.3-2,0.3s-1.6-0.1-2-0.3h-0.1
		c-0.1,0-0.2-0.1-0.2-0.2c-0.4-0.7-0.4-3,0-3.7c0-0.2,0.1-0.2,0.2-0.2c0.4-0.2,1.2-0.3,2-0.3s1.6,0.1,2,0.3h0.1
		c0.1,0,0.2,0.1,0.2,0.2c0.4,0.7,0.4,3,0,3.7C59.1,40.1,58.9,40.2,58.8,40.2z M59,34.1c0,0.2-0.3,0.2-0.5,0.2
		c-0.3,0.2-1.1,0.3-1.9,0.3c-0.8,0-1.5-0.1-1.9-0.3c0,0,0,0-0.1,0s-0.2-0.1-0.2-0.2c-0.4-0.7-0.4-3,0-3.7c0-0.2,0.1-0.2,0.2-0.2
		c0.4-0.2,1.2-0.3,2-0.3s1.6,0.1,2,0.3h0.1c0.1,0,0.2,0.1,0.2,0.2C59.5,31.1,59.5,33.4,59,34.1z M65.3,40.2c-0.4,0.2-1.2,0.3-2,0.3
		s-1.6-0.1-2-0.3h-0.1c-0.1,0-0.2-0.1-0.2-0.2c-0.4-0.7-0.4-3,0-3.7c0-0.2,0.1-0.2,0.2-0.2c0.4-0.2,1.2-0.3,2-0.3s1.6,0.1,2,0.3h0.1
		c0.1,0,0.2,0.1,0.2,0.2c0.4,0.7,0.4,3,0,3.7C65.6,40.1,65.4,40.2,65.3,40.2z M65.5,34.1c0,0.2-0.3,0.2-0.5,0.2
		c-0.3,0.2-1.1,0.3-1.9,0.3c-0.8,0-1.5-0.1-1.9-0.3h-0.1c-0.1,0-0.2-0.1-0.2-0.2c-0.4-0.7-0.4-3,0-3.7c0-0.2,0.1-0.2,0.2-0.2
		c0.4-0.2,1.2-0.3,2-0.3s1.6,0.1,2,0.3h0.1c0.1,0,0.2,0.1,0.2,0.2C65.9,31.1,65.9,33.4,65.5,34.1z"/>
	<path class="st6" d="M107.5,35c4.7,4.5,11.3,9.2,16.6,13.7c1.1,1,4,2.9,5.1,4.7c0.2,0.4,0.4,0.8,0.4,1.2c0,0.7-0.5,1.3-1.7,1.7l0,0
		l0,0l0,0l0,0c0,0,0,0-0.1,0l0,0c-0.1,0-0.3,0-0.5,0.1c-0.6,0.1-1.3,0.2-2,0.2c-0.2,0-0.3,0-0.5,0h-0.1c-0.1,0-0.2,0-0.3,0h-0.1
		c-0.1,0-0.3,0-0.4,0c0,0,0,0-0.1,0l0,0l0,0c-0.1,0-0.1,0-0.2,0c-0.3,0-0.5,0-0.8,0c-0.2,0-0.4,0-0.6,0c-0.1,0-0.1,0-0.2,0h-0.1l0,0
		c-0.1,0-0.2,0-0.3,0h-0.1c-0.1,0-0.3,0-0.4,0H121l0,0c-0.4,0-0.8,0-1.2,0c0,0,0,0-0.1,0l0,0l0,0l0,0l0,0l0,0H119l0,0l0,0
		c0,0.1,0,0.1,0,0.2c0,0.9-0.7,1.1-1,1.7l0,0l0,0l0,0l0,0l0,0c0,0,0,0-0.1,0l0,0l0,0l0,0c0,0-0.1,0-0.1,0.1v0.1c0,0,0,0,0,0.1h44.3
		v-0.2l0,0h3.2c3.8-1.7-1.9-4.6-3.7-6c-13.6-10-28.1-20.9-41.1-29.9c-3.2,2.1-6.2,4.4-9.2,6.6c-1.9,1.4-3.8,2.7-5.7,4
		C106.2,33.8,106.8,34.4,107.5,35z"/>
	<path class="st7" d="M97.1,39.4L97.1,39.4L97.1,39.4L97.1,39.4L97.1,39.4c-6,4.3-11.9,8.7-17.9,13c0.4,0,0.9,0,1.3,0
		c4.1,0.2,8.4,0.2,12.7,0.2c0.3,0,0.5,0,0.8,0c0.2,0,0.4,0,0.6,0c0.8,0,1.7,0,2.5,0c1.4,0,2.8,0,4.2,0c2.7,0,5.4,0,8.1,0
		c1.1,0,2.2,0,3.3,0c0.8,0,1.6,0,2.3,0l0,0C109.1,48.2,103.1,43.9,97.1,39.4z"/>
	<path class="st3" d="M120.3,52.6c-0.2,0-0.5,0-0.7,0.1c-0.2,0-0.3,0-0.5,0l0,0l0,0c-0.4,0-0.9,0-1.3,0l0,0c0,0,0,0-0.1,0
		c-0.3,0-0.6,0-0.9,0c-0.2,0-0.4,0-0.5,0l0,0l0,0c-0.3,0-0.6,0-0.9,0l0,0v0.2c0.3,0,0.6-0.1,0.9-0.1l0,0l0,0l0,0l0,0l0,0l0,0
		c0.4,0,0.8,0,1.3,0c0.1,0,0.1,0,0.2,0l0,0l0,0l0,0l0,0l0,0l0,0l0,0l0,0l0,0l0,0l0,0h0.1c0,0,0,0,0.1,0l0,0l0,0c0.2,0,0.4,0,0.5,0
		c0.3,0,0.6,0,0.8,0l0,0l0,0l0,0c0.6,0,1,0,1.4-0.1c0.1,0,0.2-0.1,0.3-0.1c0.1-0.1,0.1-0.2,0.2-0.3C121,52.5,120.7,52.5,120.3,52.6z
		"/>
	<path class="st3" d="M121.3,52.4L121.3,52.4L121.3,52.4z"/>
	<path class="st3" d="M119.3,56.6L119.3,56.6L119.3,56.6c0.1,0,0.1,0,0.1,0c0.4,0,0.8,0,1.2,0l0,0h0.1c0.1,0,0.3,0,0.4,0h0.1
		c0.1,0,0.2,0,0.3,0l0,0h0.1c0.1,0,0.1,0,0.2,0c0.2,0,0.4,0,0.6,0c0.3,0,0.5,0,0.8,0c0.1,0,0.1,0,0.2,0l0,0l0,0c0,0,0,0,0.1,0
		s0.3,0,0.4,0h0.1c0.1,0,0.2,0,0.3,0h0.1c0.2,0,0.3,0,0.5,0c0.7,0,1.4-0.1,2-0.2c0.2,0,0.3,0,0.5-0.1l0,0c0,0,0,0,0.1,0l0,0H119v0.3
		H119.3z"/>
	<path class="st7" d="M117.9,58.4C118,58.4,118,58.4,117.9,58.4L117.9,58.4L117.9,58.4C118,58.4,118,58.4,117.9,58.4
		c0.1,0,0.1,0,0.1,0l0,0l0,0c0.3-0.6,1-0.8,1-1.7c0,0,0-0.1,0-0.2l0,0H72l0,0l0,0l0,0l0,0c-0.5,0.2-0.6,1-0.4,1.6l0,0
		c0,0.1,0.1,0.3,0.4,0.5h45.8c0,0,0,0,0-0.1v-0.1C117.9,58.4,117.9,58.4,117.9,58.4z"/>
	<path class="st3" d="M170.8,48.9c-13.8-11.5-26.2-21.8-40.3-33.4c-1.8-1.4-5-5.2-6.7-5.3h-0.1c-1.8,0-4.7,3.2-6.1,4.4
		c-6.1,5.1-10.9,9.3-17.2,14.4C88.3,19.6,77.1,9.5,65,0h-1.5C42.4,17.9,20.8,35.3,0,53.5v1.2c0.5,0.5,0.6,1.3,1.5,1.4
		c2.5,0,6-3.3,8.5-5.1c7.2-5.4,15-11.1,21.9-16.2c10.3-7.6,20.2-14.9,29.4-21.5c1-0.8,1.9-1.7,3.2-2.3c10.2,7.4,20.2,15.1,30.6,22.2
		c-0.8,1.2-2,1.9-3,2.8l0,0c-1.9,1.6-4.1,3.4-6.3,5.3c-2.6,2.2-5.3,4.5-7.9,6.8c-0.6,0.5-1.2,1-1.9,1.5c-1.5,1.3-5.8,3.6-5,5.6
		c0.1,0.4,0.5,0.7,1,1.1l0,0h47.3l0,0l0,0h8.5l0,0l0,0c1.2-0.4,1.7-1,1.7-1.7c0-0.4-0.1-0.8-0.4-1.2c-1.1-1.8-3.9-3.8-5.1-4.7
		c-5.3-4.5-11.9-9.2-16.6-13.7c-0.7-0.6-1.3-1.2-1.9-1.9c1.9-1.3,3.8-2.7,5.7-4c3-2.2,6.1-4.5,9.2-6.6c0.8-0.8,1.9-1.3,2.7-2.1
		c15.9,10.8,30.2,21.3,46.6,32.9c0.4,0.3,3.5,3.1,5.4,3.1c0.7,0,1.3-0.3,1.5-1.2C177.5,53.1,172.1,49.9,170.8,48.9z M79.1,52.4
		L79.1,52.4L79.1,52.4L79.1,52.4z M121.1,52.6c-0.1,0.1-0.2,0.1-0.3,0.1c-0.3,0.1-0.8,0.1-1.3,0.1l0,0l0,0l0,0l0,0l0,0
		c-0.3,0-0.6,0-0.8,0c-0.2,0-0.4,0-0.5,0l0,0l0,0c0,0,0,0-0.1,0H118l0,0l0,0l0,0l0,0l0,0l0,0l0,0l0,0l0,0l0,0l0,0
		c-0.1,0-0.1,0-0.2,0c-0.5,0-0.9,0-1.3,0l0,0l0,0l0,0l0,0l0,0c-0.4,0-0.7,0-0.9,0.1l0,0l0,0v-0.2h-0.2l0,0c-0.8,0-1.6,0-2.3,0
		c-1.1,0-2.2,0-3.3,0c-2.7,0-5.4,0-8.1,0c-1.4,0-2.8,0-4.2,0c-0.8,0-1.7,0-2.5,0c-0.2,0-0.4,0-0.6,0c-0.3,0-0.6,0-0.8,0
		c-4.3,0-8.6-0.1-12.7-0.2c-0.4,0-0.9,0-1.3,0l0,0l0,0l0,0c6-4.3,11.9-8.7,17.9-13l0,0l0,0l0,0l0,0c0.2,0,0.8-0.5,1.4-1.1
		c0.7-0.6,1.4-1.3,1.6-1.3l0,0l0,0l0,0l0,0l0,0l0,0l0,0l0,0c1.1,0,3.3,2.2,4.6,3.4c0.2,0.2,0.4,0.3,0.5,0.4l0,0l0,0l0,0l0,0l0,0l0,0
		l0,0c5.1,3.8,11.6,8.1,15.9,11.4C121.3,52.5,121.2,52.6,121.1,52.6z"/>
	<path class="st3" d="M97.1,39.4L97.1,39.4L97.1,39.4z"/>
	<line class="st4" x1="97.1" y1="39.4" x2="97.1" y2="39.4"/>
	<line class="st4" x1="97.1" y1="39.4" x2="97.1" y2="39.4"/>
	<line class="st4" x1="97.1" y1="39.4" x2="97.1" y2="39.4"/>
	<path class="st6" d="M115.3,52.6c0.3,0,0.6,0,0.9,0l0,0l0,0c0.2,0,0.4,0,0.5,0c0.3,0,0.6,0,0.9,0c0,0,0,0,0.1,0l0,0
		c0.4,0,0.9,0,1.3,0l0,0l0,0c0.2,0,0.4,0,0.5,0c0.2,0,0.5,0,0.7-0.1c0.3,0,0.7-0.1,1-0.2l0,0l0,0l0,0c-4.4-3.2-10.8-7.5-15.9-11.4
		l0,0l0,0l0,0l0,0l0,0l0,0l0,0c-0.2-0.1-0.3-0.3-0.5-0.4c-1.3-1.2-3.5-3.4-4.6-3.4l0,0l0,0l0,0l0,0l0,0l0,0l0,0l0,0
		c-0.2,0-0.9,0.7-1.6,1.3c-0.6,0.5-1.2,1.1-1.4,1.1l0,0l0,0c5.9,4.5,12,8.8,17.9,13.2l0,0l0,0h0.2V52.6L115.3,52.6z"/>
	<polygon class="st3" points="72,56.6 72,56.6 72,56.6 119,56.6 119,56.6 119,56.6 119.3,56.6 119.3,56.6 119.3,56.3 72,56.3 
		72,56.4 	"/>
</g>
</svg>
